<?xml version="1.0" encoding="utf-8"?>
<!-- Generator: Adobe Illustrator 21.0.2, SVG Export Plug-In . SVG Version: 6.00 Build 0)  -->
<svg version="1.1" id="Layer_1" xmlns="http://www.w3.org/2000/svg" xmlns:xlink="http://www.w3.org/1999/xlink" x="0px" y="0px"
	 viewBox="0 0 80.6 13.3" style="enable-background:new 0 0 80.6 13.3;" xml:space="preserve">
<style type="text/css">
	.st0{fill:#8477B2;}
</style>
<g>
	<g>
		<path class="st0" d="M4.4,4.1C3.4,4,3,3.8,2.9,3.7C2.6,3.5,2.5,3.3,2.5,3c0-0.3,0.1-0.5,0.3-0.6c0.3-0.2,0.7-0.3,1.2-0.3
			c0.4,0,0.7,0.1,1,0.2C5.3,2.5,5.5,2.7,5.7,3c0.1,0.2,0.2,0.3,0.4,0.4c0.4,0.2,0.8,0.2,1.2,0c0.3-0.2,0.5-0.5,0.5-0.8
			c0-0.2-0.1-0.5-0.2-0.7c-0.4-0.6-0.8-1-1.4-1.4c-1-0.6-2.7-0.6-3.9-0.2c-0.6,0.2-1.1,0.6-1.4,1C0.5,1.8,0.3,2.3,0.3,3
			c0,0.9,0.3,1.6,1,2.2C2,5.7,2.9,6.1,4,6.2c0.6,0.1,1,0.2,1.3,0.5c0.3,0.2,0.4,0.5,0.4,0.8c0,0.3-0.1,0.5-0.4,0.7
			C4.6,8.6,3.6,8.6,2.8,8.2C2.5,8,2.3,7.9,2.2,7.7C2.1,7.4,2,7.3,1.8,7.1S1.3,6.9,1.1,6.9c-0.1,0-0.2,0-0.2,0C0.6,7,0.4,7.1,0.3,7.3
			C0.1,7.5,0,7.7,0,8c0,0.1,0,0.3,0.1,0.4C0.4,9.1,0.9,9.6,1.6,10c0.7,0.4,1.5,0.6,2.4,0.6c0.7,0,1.3-0.1,1.8-0.3
			C6.4,10,6.9,9.7,7.3,9.2c0.4-0.5,0.6-1.1,0.6-1.8c0-0.9-0.3-1.7-1-2.3C6.3,4.5,5.5,4.2,4.4,4.1z"/>
		<path class="st0" d="M16.5,3.3L16.5,3.3c-0.9-0.5-2.1-0.6-3-0.2c-0.2,0.1-0.3,0.1-0.5,0.2c0,0-0.1-0.1-0.1-0.1
			c-0.4-0.4-1.2-0.4-1.6,0c-0.2,0.2-0.3,0.5-0.3,0.8v5.4c0,0.3,0.1,0.6,0.3,0.8c0.4,0.4,1.2,0.4,1.6,0c0.2-0.2,0.3-0.5,0.3-0.8V6
			c0-0.2,0-0.4,0.1-0.5c0.1-0.2,0.3-0.3,0.5-0.4C14.1,5,14.3,5,14.6,5c0.4,0,0.8,0.1,1,0.4C15.9,5.6,16,5.9,16,6.4v3
			c0,0.3,0.1,0.6,0.3,0.8c0.2,0.2,0.5,0.3,0.8,0.3c0.3,0,0.6-0.1,0.8-0.3c0.2-0.2,0.3-0.5,0.3-0.8v-3c0-0.7-0.1-1.4-0.4-1.9
			C17.5,4,17.1,3.6,16.5,3.3z"/>
		<path class="st0" d="M27,3.4c-1.1-0.7-2.7-0.7-3.9,0c-0.6,0.3-1,0.8-1.4,1.4c-0.3,0.6-0.5,1.2-0.5,1.9c0,0.7,0.2,1.4,0.5,1.9
			c0.3,0.6,0.7,1.1,1.3,1.4c0.5,0.3,1.2,0.5,1.8,0.5c0.5,0,1-0.1,1.5-0.3c0.2-0.1,0.3-0.2,0.4-0.3c0,0.1,0.1,0.2,0.2,0.2
			c0.4,0.4,1.2,0.4,1.6,0c0.2-0.2,0.3-0.5,0.3-0.8V6.7c0-0.7-0.2-1.4-0.5-1.9C28.1,4.2,27.6,3.7,27,3.4z M24.3,8.2
			c-0.2-0.2-0.4-0.4-0.6-0.6c-0.1-0.3-0.2-0.6-0.2-0.9s0.1-0.6,0.2-0.9c0.1-0.3,0.3-0.5,0.6-0.6c0.2-0.1,0.5-0.2,0.8-0.2
			c0.3,0,0.6,0.1,0.8,0.2c0.2,0.1,0.4,0.4,0.6,0.6c0.1,0.3,0.2,0.6,0.2,0.9s-0.1,0.6-0.2,0.9c-0.1,0.3-0.3,0.5-0.6,0.6l0,0
			C25.4,8.5,24.8,8.5,24.3,8.2z"/>
		<path class="st0" d="M37.9,3.4c-1.2-0.7-2.7-0.7-3.9,0c-0.6,0.3-1,0.8-1.4,1.4c-0.3,0.6-0.5,1.2-0.5,1.9v5.5
			c0,0.3,0.1,0.6,0.3,0.8c0.2,0.2,0.5,0.3,0.8,0.3c0.3,0,0.6-0.1,0.8-0.3c0.2-0.2,0.3-0.5,0.3-0.8V10c0.1,0.1,0.2,0.1,0.3,0.2
			c1,0.5,2.4,0.4,3.3-0.2c0.5-0.3,1-0.8,1.3-1.4c0.3-0.6,0.5-1.2,0.5-1.9c0-0.7-0.2-1.4-0.5-1.9C38.9,4.2,38.5,3.7,37.9,3.4z
			 M34.5,7.6c-0.1-0.3-0.2-0.6-0.2-0.9s0.1-0.6,0.2-0.9c0.1-0.3,0.3-0.5,0.6-0.6c0.2-0.1,0.5-0.2,0.8-0.2s0.6,0.1,0.8,0.2
			c0.2,0.2,0.4,0.4,0.6,0.6c0.1,0.3,0.2,0.6,0.2,0.9s-0.1,0.6-0.2,0.9c-0.1,0.3-0.3,0.5-0.6,0.6l0,0c-0.5,0.3-1.2,0.3-1.7,0
			C34.9,8.1,34.7,7.9,34.5,7.6z"/>
		<path class="st0" d="M47,4.1C46,4,45.6,3.8,45.4,3.7c-0.2-0.2-0.3-0.4-0.3-0.7c0-0.3,0.1-0.5,0.3-0.6c0.3-0.2,0.7-0.3,1.2-0.3
			c0.4,0,0.7,0.1,1,0.2c0.3,0.1,0.5,0.4,0.6,0.6c0.1,0.2,0.2,0.3,0.4,0.4c0.4,0.2,0.8,0.2,1.2,0c0.3-0.2,0.5-0.5,0.5-0.8
			c0-0.2-0.1-0.5-0.2-0.7c-0.4-0.6-0.8-1-1.4-1.4c-0.5-0.3-1.2-0.5-2-0.5c-0.7,0-1.3,0.1-1.9,0.3c-0.6,0.2-1.1,0.6-1.4,1
			c-0.4,0.5-0.5,1-0.5,1.6c0,0.9,0.3,1.6,1,2.2c0.6,0.5,1.5,0.9,2.6,1c0.6,0.1,1,0.2,1.3,0.5c0.3,0.2,0.4,0.5,0.4,0.8
			c0,0.3-0.1,0.5-0.4,0.7c-0.6,0.4-1.7,0.5-2.4,0.1c-0.3-0.2-0.5-0.3-0.6-0.5c-0.1-0.2-0.2-0.4-0.4-0.5c-0.2-0.1-0.4-0.2-0.6-0.2
			c-0.1,0-0.2,0-0.2,0C43.2,7,43,7.1,42.8,7.3c-0.2,0.2-0.3,0.4-0.3,0.7c0,0.1,0,0.3,0.1,0.4c0.3,0.7,0.8,1.2,1.5,1.6
			c0.7,0.4,1.5,0.6,2.4,0.6c0.7,0,1.3-0.1,1.8-0.3c0.6-0.2,1.1-0.6,1.5-1.1c0.4-0.5,0.6-1.1,0.6-1.8c0-0.9-0.3-1.7-1-2.3
			C48.9,4.5,48,4.2,47,4.1z"/>
		<path class="st0" d="M59.4,3.4c-1.2-0.7-2.7-0.7-3.9,0c-0.6,0.3-1,0.8-1.4,1.4S53.6,6,53.6,6.7v5.5c0,0.3,0.1,0.6,0.3,0.8
			c0.2,0.2,0.5,0.3,0.8,0.3c0.3,0,0.6-0.1,0.8-0.3c0.2-0.2,0.3-0.5,0.3-0.8V10c0.1,0.1,0.2,0.1,0.3,0.2c1,0.5,2.4,0.4,3.3-0.2
			c0.5-0.3,1-0.8,1.3-1.4c0.3-0.6,0.5-1.2,0.5-1.9c0-0.7-0.2-1.4-0.5-1.9C60.4,4.2,59.9,3.7,59.4,3.4z M56,7.6
			c-0.1-0.3-0.2-0.6-0.2-0.9s0.1-0.6,0.2-0.9c0.1-0.3,0.3-0.5,0.6-0.6c0.2-0.1,0.5-0.2,0.8-0.2S58,5,58.3,5.2
			c0.2,0.2,0.4,0.4,0.6,0.6c0.1,0.3,0.2,0.6,0.2,0.9S59,7.3,58.8,7.6c-0.1,0.3-0.3,0.5-0.6,0.6l0,0c-0.5,0.3-1.2,0.3-1.7,0
			C56.4,8.1,56.2,7.9,56,7.6z"/>
		<path class="st0" d="M80.3,8.6L80.3,8.6c-0.2-0.2-0.5-0.3-0.7-0.3h-0.4c-0.1,0-0.2,0-0.3-0.1c-0.1-0.1-0.2-0.3-0.2-0.5V5.2h0.5
			c0.3,0,0.6-0.1,0.7-0.3c0.2-0.2,0.3-0.4,0.3-0.7c0-0.3-0.1-0.6-0.3-0.8c-0.2-0.2-0.5-0.3-0.7-0.3h-0.5V1.9c0-0.3-0.1-0.6-0.3-0.8
			c-0.4-0.4-1.2-0.4-1.6,0c-0.2,0.2-0.3,0.5-0.3,0.8v1.2h-0.1c-0.3,0-0.6,0.1-0.7,0.3c-0.2,0.2-0.3,0.5-0.3,0.8
			c0,0.3,0.1,0.5,0.3,0.7c0.2,0.2,0.5,0.3,0.7,0.3h0.1v2.5c0,0.5,0.1,1,0.3,1.4c0.2,0.4,0.5,0.8,0.9,1c0.4,0.3,0.9,0.4,1.3,0.4h0.2
			c0.3,0,0.6-0.1,0.8-0.3c0.2-0.2,0.4-0.5,0.4-0.8C80.6,9.1,80.5,8.8,80.3,8.6z"/>
		<path class="st0" d="M71.8,3.2h-1.1l-0.2-0.6c-0.1-0.3-0.5-0.6-0.8-0.6h-2.4c-0.3,0-0.7,0.3-0.8,0.6l-0.2,0.6h-1.1
			c-0.7,0-1.2,0.5-1.2,1.2v4.3c0,0.7,0.5,1.2,1.2,1.2h1.2l1.4,2.9c0.1,0.3,0.4,0.5,0.8,0.5c0.3,0,0.6-0.2,0.8-0.5l1.3-2.9h1.2
			c0.7,0,1.2-0.5,1.2-1.2V4.4C73,3.7,72.5,3.2,71.8,3.2z M68.5,4.8c0.9,0,1.7,0.8,1.7,1.7c0,0.9-0.8,1.7-1.7,1.7
			c-0.9,0-1.7-0.8-1.7-1.7C66.8,5.5,67.5,4.8,68.5,4.8z"/>
	</g>
</g>
</svg>
